P2 10 14 # PGM in ASCII with 10x14 pixels
9        # Values from 0 (black) to 9 (white)
9 6 3 4 9 9 9 9 9 9
8 4 2 2 6 9 9 9 9 9
8 6 9 5 4 9 9 9 9 9
8 9 9 9 4 9 9 9 9 9
9 9 9 9 4 7 9 9 9 9
9 9 9 9 3 6 9 9 9 9
9 9 9 6 1 3 9 9 9 9
9 9 9 4 0 3 8 9 9 9
9 9 7 0 4 4 8 9 9 9
9 9 4 1 7 5 6 9 9 9
9 7 1 3 9 6 5 9 9 8
9 5 0 7 9 8 3 8 9 6
8 1 2 8 9 8 3 3 4 4
5 2 5 9 9 9 7 2 1 7